<svg width="40" height="52" viewBox="0 0 40 52" fill="none" xmlns="http://www.w3.org/2000/svg">
<g id="vuesax/bulk/location">
<g id="location">
<path id="Vector" opacity="0.4" d="M39.395 15.5579C37.0325 5.16291 27.965 0.48291 20 0.48291C20 0.48291 20 0.48291 19.9775 0.48291C12.035 0.48291 2.945 5.14041 0.582501 15.5354C-2.05 27.1454 5.06 36.9779 11.495 43.1654C13.88 45.4604 20 51.1079 20 51.1079C20 51.1079 26.12 45.4604 28.4825 43.1654C34.9175 36.9779 42.0275 27.1679 39.395 15.5579Z" fill="#3083FF"/>
<path id="Vector_2" d="M20 26.8304C23.9143 26.8304 27.0875 23.6572 27.0875 19.7429C27.0875 15.8286 23.9143 12.6554 20 12.6554C16.0857 12.6554 12.9125 15.8286 12.9125 19.7429C12.9125 23.6572 16.0857 26.8304 20 26.8304Z" fill="#3083FF"/>
</g>
</g>
</svg>
