<svg aria-hidden="true" style="position: absolute; width: 0; height: 0; overflow: hidden;" version="1.1" xmlns="http://www.w3.org/2000/svg" xmlns:xlink="http://www.w3.org/1999/xlink">
<defs>
<symbol id="icon-bitcoin-refresh" viewBox="0 0 32 32">
<path fill="#3083ff" style="fill: var(--color1, #3083ff)" opacity="0.4" d="M31.373 16.067c-0.387-0.387-1.027-0.387-1.413 0l-0.613 0.613v-0.68c0-7.36-5.987-13.347-13.347-13.347-4.067 0-7.867 1.827-10.413 5-0.347 0.427-0.28 1.067 0.16 1.4 0.427 0.347 1.067 0.28 1.4-0.16 2.173-2.707 5.4-4.253 8.853-4.253 6.253 0 11.347 5.093 11.347 11.347v0.667l-0.613-0.613c-0.387-0.387-1.027-0.387-1.413 0s-0.387 1.027 0 1.413l2.32 2.32c0.093 0.093 0.2 0.16 0.32 0.213s0.253 0.080 0.387 0.080c0.133 0 0.253-0.027 0.387-0.080 0.12-0.053 0.227-0.12 0.32-0.213l2.32-2.32c0.387-0.36 0.387-1 0-1.387z"></path>
<path fill="#3083ff" style="fill: var(--color1, #3083ff)" opacity="0.4" d="M26.253 22.933c-0.427-0.347-1.067-0.28-1.4 0.16-2.173 2.707-5.4 4.253-8.853 4.253-6.253 0-11.347-5.093-11.347-11.347v-0.667l0.613 0.613c0.2 0.2 0.453 0.293 0.707 0.293s0.507-0.093 0.707-0.293c0.387-0.387 0.387-1.027 0-1.413l-2.32-2.32c-0.093-0.093-0.2-0.16-0.32-0.213-0.24-0.107-0.52-0.107-0.76 0-0.12 0.053-0.227 0.12-0.32 0.213l-2.32 2.32c-0.387 0.387-0.387 1.027 0 1.413s1.027 0.387 1.413 0l0.613-0.613v0.667c0 7.36 5.987 13.347 13.347 13.347 4.067 0 7.867-1.827 10.413-5 0.333-0.427 0.267-1.067-0.173-1.413z"></path>
<path fill="#3083ff" style="fill: var(--color1, #3083ff)" d="M9.372 20.667v-0.655c0-0.48 0.136-0.956 0.408-1.427 0.272-0.48 0.6-0.908 0.982-1.283 0.391-0.384 0.778-0.746 1.161-1.087 0.383-0.349 0.71-0.703 0.982-1.060s0.408-0.689 0.408-0.995c0-0.34-0.102-0.611-0.306-0.812-0.204-0.209-0.485-0.314-0.842-0.314-0.42 0-0.746 0.155-0.978 0.465-0.223 0.298-0.577 0.521-0.933 0.414l-0.326-0.098c-0.336-0.101-0.542-0.449-0.398-0.768 0.026-0.057 0.053-0.114 0.083-0.17 0.128-0.244 0.298-0.489 0.51-0.733 0.221-0.244 0.515-0.441 0.88-0.589s0.778-0.223 1.238-0.223c0.868 0 1.569 0.253 2.105 0.759 0.536 0.497 0.804 1.161 0.804 1.99 0 0.454-0.115 0.895-0.345 1.322s-0.515 0.803-0.855 1.126c-0.34 0.314-0.685 0.615-1.034 0.903-0.34 0.279-0.646 0.563-0.919 0.851-0.272 0.279-0.438 0.537-0.498 0.772h3.085c0.368 0 0.667 0.299 0.667 0.667v0.277c0 0.368-0.299 0.667-0.667 0.667h-5.215z"></path>
<path fill="#3083ff" style="fill: var(--color1, #3083ff)" d="M16.533 18.533c-0.368 0-0.667-0.298-0.667-0.667v-0.655l3.662-5.707h2.093v5.459h0.38c0.368 0 0.667 0.299 0.667 0.667v0.237c0 0.368-0.299 0.667-0.667 0.667h-0.38v1.467c0 0.368-0.299 0.667-0.667 0.667h-0.44c-0.368 0-0.667-0.299-0.667-0.667v-1.467h-3.314zM17.716 16.962h2.131v-3.403l-2.131 3.403z"></path>
</symbol>
<symbol id="icon-messages" viewBox="0 0 32 32">
<path fill="#3083ff" style="fill: var(--color1, #3083ff)" opacity="0.4" d="M24.627 22.44l0.52 4.213c0.133 1.107-1.053 1.88-2 1.307l-5.587-3.32c-0.613 0-1.213-0.040-1.8-0.12 0.987-1.16 1.573-2.627 1.573-4.213 0-3.787-3.28-6.853-7.333-6.853-1.547 0-2.973 0.44-4.16 1.213-0.040-0.333-0.053-0.667-0.053-1.013 0-6.067 5.267-10.987 11.773-10.987s11.773 4.92 11.773 10.987c0 3.6-1.853 6.787-4.707 8.787z"></path>
<path fill="#3083ff" style="fill: var(--color1, #3083ff)" d="M17.333 20.307c0 1.587-0.587 3.053-1.573 4.213-1.32 1.6-3.413 2.627-5.76 2.627l-3.48 2.067c-0.587 0.36-1.333-0.133-1.253-0.813l0.333-2.627c-1.787-1.24-2.933-3.227-2.933-5.467 0-2.347 1.253-4.413 3.173-5.64 1.187-0.773 2.613-1.213 4.16-1.213 4.053 0 7.333 3.067 7.333 6.853z"></path>
</symbol>
<symbol id="icon-profile" viewBox="0 0 32 32">
<path fill="#3083ff" style="fill: var(--color1, #3083ff)" opacity="0.4" d="M16 2.667c-3.493 0-6.333 2.84-6.333 6.333 0 3.427 2.68 6.2 6.173 6.32 0.107-0.013 0.213-0.013 0.293 0 0.027 0 0.040 0 0.067 0 0.013 0 0.013 0 0.027 0 3.413-0.12 6.093-2.893 6.107-6.32 0-3.493-2.84-6.333-6.333-6.333z"></path>
<path fill="#3083ff" style="fill: var(--color1, #3083ff)" opacity="0.4" d="M26.892 25.312c-0.058-0.642-0.229-1.326-1.478-1.326h-4.962c-1.248 0-1.416 0.685-1.478 1.326l-0.218 2.368c-0.027 0.295 0.070 0.591 0.272 0.813 0.206 0.226 0.498 0.354 0.809 0.354h0.731c0.63 0 0.751-0.362 0.828-0.599l0.078-0.233c0.089-0.268 0.113-0.334 0.463-0.334h1.991c0.35 0 0.362 0.039 0.463 0.334l0.078 0.233c0.078 0.237 0.198 0.599 0.828 0.599h0.731c0.307 0 0.603-0.128 0.809-0.354 0.202-0.222 0.299-0.517 0.272-0.813l-0.218-2.368z"></path>
<path fill="#3083ff" style="fill: var(--color1, #3083ff)" d="M26.433 22.819h-0.389c-0.004 0-0.004 0-0.008 0l-0.148-0.704c-0.14-0.681-0.432-1.307-1.591-1.307h-2.73c-1.159 0-1.451 0.626-1.591 1.307l-0.148 0.704c-0.004 0-0.004 0-0.008 0h-0.389c-0.159 0-0.292 0.132-0.292 0.292s0.132 0.292 0.292 0.292h0.276l-0.163 0.778c0.21-0.121 0.502-0.194 0.906-0.194h4.962c0.405 0 0.696 0.074 0.906 0.194l-0.163-0.778h0.276c0.159 0 0.292-0.132 0.292-0.292s-0.132-0.292-0.292-0.292z"></path>
<path fill="#3083ff" style="fill: var(--color1, #3083ff)" d="M21.767 26.125h-1.167c-0.159 0-0.292-0.132-0.292-0.292s0.132-0.292 0.292-0.292h1.167c0.159 0 0.292 0.132 0.292 0.292s-0.132 0.292-0.292 0.292z"></path>
<path fill="#3083ff" style="fill: var(--color1, #3083ff)" d="M25.267 26.125h-1.167c-0.159 0-0.292-0.132-0.292-0.292s0.132-0.292 0.292-0.292h1.167c0.159 0 0.292 0.132 0.292 0.292s-0.132 0.292-0.292 0.292z"></path>
<path fill="#3083ff" style="fill: var(--color1, #3083ff)" d="M9.24 18.867c3.747-2.48 9.813-2.48 13.533 0 0.548 0.365 1.015 0.773 1.397 1.214-0.189-0.052-0.41-0.081-0.671-0.081h-3.035c-1.288 0-1.612 0.699-1.768 1.458l-0.164 0.786h-0.441c-0.177 0-0.324 0.148-0.324 0.326s0.147 0.325 0.324 0.325h0.307l-0.181 0.863c-0.489 0.277-0.59 0.783-0.636 1.268l-0.242 2.643c-0.030 0.33 0.078 0.66 0.303 0.907 0.229 0.252 0.553 0.395 0.899 0.395h0.639c-1.027 0.241-2.103 0.362-3.179 0.362-2.453 0-4.907-0.627-6.773-1.88-1.68-1.12-2.613-2.64-2.613-4.28s0.933-3.173 2.627-4.307zM19.223 23.546c-0.019 0-0.038 0-0.057 0 0.019-0 0.038-0 0.057-0h5.516c0.019 0 0.038 0 0.057 0-0.019-0-0.038-0-0.057-0h-5.516z"></path>
</symbol>
<symbol id="icon-wallet" viewBox="0 0 32 32">
<path fill="#3083ff" style="fill: var(--color1, #3083ff)" opacity="0.8" d="M17.2 3.36l-0.040 0.093-3.867 8.973h-3.8c-0.907 0-1.76 0.173-2.56 0.52l2.333-5.573 0.053-0.12 0.080-0.213c0.040-0.093 0.067-0.173 0.107-0.24 1.747-4.040 3.72-4.96 7.693-3.44z"></path>
<path fill="#3083ff" style="fill: var(--color1, #3083ff)" d="M24.387 12.693c-0.6-0.173-1.227-0.267-1.88-0.267h-9.213l3.907-9.067c0.187 0.067 0.387 0.16 0.587 0.227l2.947 1.24c1.64 0.68 2.787 1.387 3.493 2.24 0.12 0.16 0.227 0.307 0.333 0.48 0.12 0.187 0.213 0.373 0.267 0.573 0.053 0.12 0.093 0.227 0.12 0.347 0.347 1.133 0.133 2.507-0.56 4.227z"></path>
<path fill="#3083ff" style="fill: var(--color1, #3083ff)" opacity="0.4" d="M29.013 18.933v2.6c0 0.267-0.013 0.533-0.027 0.787-0.253 4.667-2.853 7.013-7.787 7.013h-10.4c-0.333 0-0.64-0.027-0.947-0.067-4.24-0.28-6.507-2.547-6.8-6.787-0.040-0.32-0.067-0.627-0.067-0.947v-2.6c0-2.68 1.627-4.987 3.947-5.987 0.8-0.347 1.653-0.52 2.56-0.52h13.013c0.653 0 1.28 0.093 1.88 0.267 2.667 0.813 4.627 3.293 4.627 6.24z"></path>
<path fill="#3083ff" style="fill: var(--color1, #3083ff)" opacity="0.6" d="M9.267 7.373l-2.333 5.573c-2.32 1-3.947 3.307-3.947 5.987v-3.907c0-3.787 2.693-6.947 6.28-7.653z"></path>
<path fill="#3083ff" style="fill: var(--color1, #3083ff)" opacity="0.6" d="M29.013 15.027v3.907c0-2.947-1.96-5.427-4.627-6.24 0.693-1.72 0.907-3.093 0.56-4.227-0.027-0.12-0.067-0.227-0.12-0.347 2.493 1.293 4.187 3.92 4.187 6.907z"></path>
</symbol>
</defs>
</svg>
