<svg width="54" height="54" viewBox="0 0 54 54" fill="none" xmlns="http://www.w3.org/2000/svg">
<g id="vuesax/bulk/calendar-tick">
<g id="calendar-tick">
<path id="Vector" d="M37.6875 8.00999V4.5C37.6875 3.5775 36.9225 2.8125 36 2.8125C35.0775 2.8125 34.3125 3.5775 34.3125 4.5V7.875H19.6875V4.5C19.6875 3.5775 18.9225 2.8125 18 2.8125C17.0775 2.8125 16.3125 3.5775 16.3125 4.5V8.00999C10.2375 8.57249 7.29 12.195 6.84 17.5725C6.795 18.225 7.335 18.765 7.965 18.765H46.035C46.6875 18.765 47.2275 18.2025 47.16 17.5725C46.71 12.195 43.7625 8.57249 37.6875 8.00999Z" fill="white"/>
<path id="Vector_2" opacity="0.4" d="M47.25 24.39V28.3049C47.25 29.6774 46.035 30.735 44.685 30.51C44.055 30.42 43.4025 30.3524 42.75 30.3524C35.9325 30.3524 30.375 35.9099 30.375 42.7274C30.375 43.7624 30.78 45.2025 31.2075 46.5075C31.7025 47.97 30.6225 49.4774 29.07 49.4774H18C10.125 49.4774 6.75 44.9774 6.75 38.2274V24.3674C6.75 23.1299 7.7625 22.1174 9 22.1174H45C46.2375 22.1399 47.25 23.1525 47.25 24.39Z" fill="white"/>
<path id="Vector_3" d="M42.75 33.75C37.7775 33.75 33.75 37.7775 33.75 42.75C33.75 44.4375 34.2225 46.035 35.055 47.385C36.6075 49.995 39.465 51.75 42.75 51.75C46.035 51.75 48.8925 49.995 50.445 47.385C51.2775 46.035 51.75 44.4375 51.75 42.75C51.75 37.7775 47.7225 33.75 42.75 33.75ZM47.4075 41.7825L42.615 46.215C42.3 46.5075 41.8725 46.665 41.4675 46.665C41.04 46.665 40.6125 46.5075 40.275 46.17L38.0475 43.9425C37.395 43.29 37.395 42.21 38.0475 41.5575C38.7 40.905 39.78 40.905 40.4325 41.5575L41.5125 42.6375L45.1125 39.3075C45.7875 38.6775 46.8675 38.7225 47.4975 39.3975C48.1275 40.0725 48.0825 41.13 47.4075 41.7825Z" fill="white"/>
<path id="Vector_4" d="M19.125 33.75C18.54 33.75 17.955 33.5025 17.5275 33.0975C17.1225 32.67 16.875 32.085 16.875 31.5C16.875 30.915 17.1225 30.3301 17.5275 29.9026C18.045 29.3851 18.8325 29.1375 19.575 29.295C19.71 29.3175 19.845 29.3625 19.98 29.43C20.115 29.475 20.25 29.5426 20.385 29.6326C20.4975 29.7226 20.61 29.8126 20.7225 29.9026C21.1275 30.3301 21.375 30.915 21.375 31.5C21.375 32.085 21.1275 32.67 20.7225 33.0975C20.61 33.1875 20.4975 33.2775 20.385 33.3675C20.25 33.4575 20.115 33.5251 19.98 33.5701C19.845 33.6376 19.71 33.6826 19.575 33.7051C19.4175 33.7276 19.26 33.75 19.125 33.75Z" fill="white"/>
<path id="Vector_5" d="M27 33.7501C26.415 33.7501 25.83 33.5025 25.4025 33.0975C24.9975 32.67 24.75 32.0851 24.75 31.5001C24.75 30.9151 24.9975 30.3301 25.4025 29.9026C26.2575 29.0701 27.765 29.0701 28.5975 29.9026C29.0025 30.3301 29.25 30.9151 29.25 31.5001C29.25 32.0851 29.0025 32.67 28.5975 33.0975C28.17 33.5025 27.585 33.7501 27 33.7501Z" fill="white"/>
<path id="Vector_6" d="M19.125 41.625C18.54 41.625 17.955 41.3774 17.5275 40.9724C17.1225 40.5449 16.875 39.96 16.875 39.375C16.875 38.79 17.1225 38.205 17.5275 37.7775C17.7525 37.575 17.9775 37.4174 18.27 37.3049C19.1025 36.9449 20.0925 37.1475 20.7225 37.7775C21.1275 38.205 21.375 38.79 21.375 39.375C21.375 39.96 21.1275 40.5449 20.7225 40.9724C20.295 41.3774 19.71 41.625 19.125 41.625Z" fill="white"/>
</g>
</g>
</svg>
