<svg width="54" height="54" viewBox="0 0 54 54" fill="none" xmlns="http://www.w3.org/2000/svg">
<g id="vuesax/bulk/car">
<g id="car">
<path id="Vector" opacity="0.4" d="M49.905 30.735C49.5675 27.0225 48.5775 23.0625 41.355 23.0625H12.645C5.42251 23.0625 4.45501 27.0225 4.09501 30.735L2.83501 44.4375C2.67751 46.1475 3.24001 47.8575 4.41001 49.14C5.60251 50.445 7.29001 51.1875 9.09001 51.1875H13.32C16.965 51.1875 17.6625 49.095 18.1125 47.7225L18.5625 46.3725C19.08 44.82 19.215 44.4375 21.24 44.4375H32.76C34.785 44.4375 34.8525 44.6625 35.4375 46.3725L35.8875 47.7225C36.3375 49.095 37.035 51.1875 40.68 51.1875H44.91C46.6875 51.1875 48.3975 50.445 49.59 49.14C50.76 47.8575 51.3225 46.1475 51.165 44.4375L49.905 30.735Z" fill="#3083FF"/>
<path id="Vector_2" d="M47.25 16.3126H45C44.9775 16.3126 44.9775 16.3126 44.955 16.3126L44.1 12.2401C43.29 8.30255 41.6025 4.68005 34.8975 4.68005H28.6875H25.3125H19.1025C12.3975 4.68005 10.71 8.30255 9.9 12.2401L9.045 16.3126C9.0225 16.3126 9.0225 16.3126 9 16.3126H6.75C5.8275 16.3126 5.0625 17.0776 5.0625 18.0001C5.0625 18.9226 5.8275 19.6876 6.75 19.6876H8.3475L7.4025 24.1876C8.6175 23.4901 10.305 23.0626 12.645 23.0626H41.355C43.695 23.0626 45.3825 23.4901 46.5975 24.1876L45.6525 19.6876H47.25C48.1725 19.6876 48.9375 18.9226 48.9375 18.0001C48.9375 17.0776 48.1725 16.3126 47.25 16.3126Z" fill="#3083FF"/>
<path id="Vector_3" d="M20.25 35.4375H13.5C12.5775 35.4375 11.8125 34.6725 11.8125 33.75C11.8125 32.8275 12.5775 32.0625 13.5 32.0625H20.25C21.1725 32.0625 21.9375 32.8275 21.9375 33.75C21.9375 34.6725 21.1725 35.4375 20.25 35.4375Z" fill="#3083FF"/>
<path id="Vector_4" d="M40.5 35.4375H33.75C32.8275 35.4375 32.0625 34.6725 32.0625 33.75C32.0625 32.8275 32.8275 32.0625 33.75 32.0625H40.5C41.4225 32.0625 42.1875 32.8275 42.1875 33.75C42.1875 34.6725 41.4225 35.4375 40.5 35.4375Z" fill="#3083FF"/>
</g>
</g>
</svg>
